<?xml version="1.0" encoding="iso-8859-1"?>

<svg version="1.1" id="Layer_1" 
     xmlns="http://www.w3.org/2000/svg" 
     x="0px" y="0px"
	 viewBox="0 0 512 128" 
     style="enable-background:new 0 0 512 128;"
     xml:space="preserve"
     shape-rendering="crispEdges"
     >
    <rect x="0" y="0" style="fill:rgba(252, 0, 3, 1);" width="5" height="128"/>
    <rect x="5" y="0" style="fill:rgba(250, 0, 5, 1);" width="5" height="128"/>
    <rect x="10" y="0" style="fill:rgba(247, 0, 8, 1);" width="5" height="128"/>
    <rect x="15" y="0" style="fill:rgba(245, 0, 10, 1);" width="5" height="128"/>
    <rect x="20" y="0" style="fill:rgba(242, 0, 13, 1);" width="5" height="128"/>
    <rect x="25" y="0" style="fill:rgba(240, 0, 15, 1);" width="5" height="128"/>
    <rect x="30" y="0" style="fill:rgba(237, 0, 18, 1);" width="5" height="128"/>
    <rect x="35" y="0" style="fill:rgba(235, 0, 20, 1);" width="5" height="128"/>
    <rect x="40" y="0" style="fill:rgba(232, 0, 23, 1);" width="5" height="128"/>
    <rect x="45" y="0" style="fill:rgba(230, 0, 25, 1);" width="5" height="128"/>
    <rect x="50" y="0" style="fill:rgba(227, 0, 28, 1);" width="5" height="128"/>
    <rect x="55" y="0" style="fill:rgba(224, 0, 30, 1);" width="5" height="128"/>
    <rect x="60" y="0" style="fill:rgba(222, 0, 33, 1);" width="5" height="128"/>
    <rect x="65" y="0" style="fill:rgba(219, 0, 36, 1);" width="5" height="128"/>
    <rect x="70" y="0" style="fill:rgba(217, 0, 38, 1);" width="5" height="128"/>
    <rect x="75" y="0" style="fill:rgba(214, 0, 41, 1);" width="5" height="128"/>
    <rect x="80" y="0" style="fill:rgba(212, 0, 43, 1);" width="5" height="128"/>
    <rect x="85" y="0" style="fill:rgba(209, 0, 46, 1);" width="5" height="128"/>
    <rect x="90" y="0" style="fill:rgba(207, 0, 48, 1);" width="5" height="128"/>
    <rect x="95" y="0" style="fill:rgba(204, 0, 51, 1);" width="5" height="128"/>
    <rect x="100" y="0" style="fill:rgba(201, 0, 53, 1);" width="5" height="128"/>
    <rect x="105" y="0" style="fill:rgba(199, 0, 56, 1);" width="5" height="128"/>
    <rect x="110" y="0" style="fill:rgba(196, 0, 58, 1);" width="5" height="128"/>
    <rect x="115" y="0" style="fill:rgba(194, 0, 61, 1);" width="5" height="128"/>
    <rect x="120" y="0" style="fill:rgba(191, 0, 64, 1);" width="5" height="128"/>
    <rect x="125" y="0" style="fill:rgba(189, 0, 66, 1);" width="5" height="128"/>
    <rect x="130" y="0" style="fill:rgba(186, 0, 69, 1);" width="5" height="128"/>
    <rect x="135" y="0" style="fill:rgba(184, 0, 71, 1);" width="5" height="128"/>
    <rect x="140" y="0" style="fill:rgba(181, 0, 74, 1);" width="5" height="128"/>
    <rect x="145" y="0" style="fill:rgba(178, 0, 76, 1);" width="5" height="128"/>
    <rect x="150" y="0" style="fill:rgba(176, 0, 79, 1);" width="5" height="128"/>
    <rect x="155" y="0" style="fill:rgba(173, 0, 81, 1);" width="5" height="128"/>
    <rect x="160" y="0" style="fill:rgba(171, 0, 84, 1);" width="5" height="128"/>
    <rect x="165" y="0" style="fill:rgba(168, 0, 86, 1);" width="5" height="128"/>
    <rect x="170" y="0" style="fill:rgba(166, 0, 89, 1);" width="5" height="128"/>
    <rect x="175" y="0" style="fill:rgba(163, 0, 91, 1);" width="5" height="128"/>
    <rect x="180" y="0" style="fill:rgba(161, 0, 94, 1);" width="5" height="128"/>
    <rect x="185" y="0" style="fill:rgba(158, 0, 97, 1);" width="5" height="128"/>
    <rect x="190" y="0" style="fill:rgba(156, 0, 99, 1);" width="5" height="128"/>
    <rect x="195" y="0" style="fill:rgba(153, 0, 102, 1);" width="5" height="128"/>
    <rect x="200" y="0" style="fill:rgba(150, 0, 104, 1);" width="5" height="128"/>
    <rect x="205" y="0" style="fill:rgba(148, 0, 107, 1);" width="5" height="128"/>
    <rect x="210" y="0" style="fill:rgba(145, 0, 109, 1);" width="5" height="128"/>
    <rect x="215" y="0" style="fill:rgba(143, 0, 112, 1);" width="5" height="128"/>
    <rect x="220" y="0" style="fill:rgba(140, 0, 114, 1);" width="5" height="128"/>
    <rect x="225" y="0" style="fill:rgba(138, 0, 117, 1);" width="5" height="128"/>
    <rect x="230" y="0" style="fill:rgba(135, 0, 119, 1);" width="5" height="128"/>
    <rect x="235" y="0" style="fill:rgba(133, 0, 122, 1);" width="5" height="128"/>
    <rect x="240" y="0" style="fill:rgba(130, 0, 124, 1);" width="5" height="128"/>
    <rect x="245" y="0" style="fill:rgba(128, 0, 127, 1);" width="5" height="128"/>
    <rect x="250" y="0" style="fill:rgba(125, 0, 130, 1);" width="5" height="128"/>
    <rect x="255" y="0" style="fill:rgba(122, 0, 132, 1);" width="5" height="128"/>
    <rect x="260" y="0" style="fill:rgba(120, 0, 135, 1);" width="5" height="128"/>
    <rect x="265" y="0" style="fill:rgba(117, 0, 137, 1);" width="5" height="128"/>
    <rect x="270" y="0" style="fill:rgba(115, 0, 140, 1);" width="5" height="128"/>
    <rect x="275" y="0" style="fill:rgba(112, 0, 142, 1);" width="5" height="128"/>
    <rect x="280" y="0" style="fill:rgba(110, 0, 145, 1);" width="5" height="128"/>
    <rect x="285" y="0" style="fill:rgba(107, 0, 147, 1);" width="5" height="128"/>
    <rect x="290" y="0" style="fill:rgba(105, 0, 150, 1);" width="5" height="128"/>
    <rect x="295" y="0" style="fill:rgba(102, 0, 152, 1);" width="5" height="128"/>
    <rect x="300" y="0" style="fill:rgba(99, 0, 155, 1);" width="5" height="128"/>
    <rect x="305" y="0" style="fill:rgba(97, 0, 157, 1);" width="5" height="128"/>
    <rect x="310" y="0" style="fill:rgba(94, 0, 160, 1);" width="5" height="128"/>
    <rect x="315" y="0" style="fill:rgba(92, 0, 163, 1);" width="5" height="128"/>
    <rect x="320" y="0" style="fill:rgba(89, 0, 165, 1);" width="5" height="128"/>
    <rect x="325" y="0" style="fill:rgba(87, 0, 168, 1);" width="5" height="128"/>
    <rect x="330" y="0" style="fill:rgba(84, 0, 170, 1);" width="5" height="128"/>
    <rect x="335" y="0" style="fill:rgba(82, 0, 173, 1);" width="5" height="128"/>
    <rect x="340" y="0" style="fill:rgba(79, 0, 175, 1);" width="5" height="128"/>
    <rect x="345" y="0" style="fill:rgba(76, 0, 178, 1);" width="5" height="128"/>
    <rect x="350" y="0" style="fill:rgba(74, 0, 180, 1);" width="5" height="128"/>
    <rect x="355" y="0" style="fill:rgba(71, 0, 183, 1);" width="5" height="128"/>
    <rect x="360" y="0" style="fill:rgba(69, 0, 185, 1);" width="5" height="128"/>
    <rect x="365" y="0" style="fill:rgba(66, 0, 188, 1);" width="5" height="128"/>
    <rect x="370" y="0" style="fill:rgba(64, 0, 190, 1);" width="5" height="128"/>
    <rect x="375" y="0" style="fill:rgba(61, 0, 193, 1);" width="5" height="128"/>
    <rect x="380" y="0" style="fill:rgba(59, 0, 196, 1);" width="5" height="128"/>
    <rect x="385" y="0" style="fill:rgba(56, 0, 198, 1);" width="5" height="128"/>
    <rect x="390" y="0" style="fill:rgba(54, 0, 201, 1);" width="5" height="128"/>
    <rect x="395" y="0" style="fill:rgba(51, 0, 203, 1);" width="5" height="128"/>
    <rect x="400" y="0" style="fill:rgba(48, 0, 206, 1);" width="5" height="128"/>
    <rect x="405" y="0" style="fill:rgba(46, 0, 208, 1);" width="5" height="128"/>
    <rect x="410" y="0" style="fill:rgba(43, 0, 211, 1);" width="5" height="128"/>
    <rect x="415" y="0" style="fill:rgba(41, 0, 213, 1);" width="5" height="128"/>
    <rect x="420" y="0" style="fill:rgba(38, 0, 216, 1);" width="5" height="128"/>
    <rect x="425" y="0" style="fill:rgba(36, 0, 218, 1);" width="5" height="128"/>
    <rect x="430" y="0" style="fill:rgba(33, 0, 221, 1);" width="5" height="128"/>
    <rect x="435" y="0" style="fill:rgba(31, 0, 224, 1);" width="5" height="128"/>
    <rect x="440" y="0" style="fill:rgba(28, 0, 226, 1);" width="5" height="128"/>
    <rect x="445" y="0" style="fill:rgba(26, 0, 229, 1);" width="5" height="128"/>
    <rect x="450" y="0" style="fill:rgba(23, 0, 231, 1);" width="5" height="128"/>
    <rect x="455" y="0" style="fill:rgba(20, 0, 234, 1);" width="5" height="128"/>
    <rect x="460" y="0" style="fill:rgba(18, 0, 236, 1);" width="5" height="128"/>
    <rect x="465" y="0" style="fill:rgba(15, 0, 239, 1);" width="5" height="128"/>
    <rect x="470" y="0" style="fill:rgba(13, 0, 241, 1);" width="5" height="128"/>
    <rect x="475" y="0" style="fill:rgba(10, 0, 244, 1);" width="5" height="128"/>
    <rect x="480" y="0" style="fill:rgba(8, 0, 246, 1);" width="5" height="128"/>
    <rect x="485" y="0" style="fill:rgba(5, 0, 249, 1);" width="5" height="128"/>
    <rect x="490" y="0" style="fill:rgba(3, 0, 251, 1);" width="5" height="128"/>
    <rect x="495" y="0" style="fill:rgba(0, 0, 254, 1);" width="5" height="128"/>

</svg>
